<svg version="1.1" id="Layer_1" xmlns="http://www.w3.org/2000/svg" xmlns:xlink="http://www.w3.org/1999/xlink" x="0px" y="0px"
	 width="100%" viewBox="0 0 1080 1080" enable-background="new 0 0 1080 1080" xml:space="preserve">
<path fill="#00AE55" opacity="1.000000" stroke="none" 
	d="
M1081.000000,2.000000 
	C1081.000000,361.598724 1081.000000,721.197449 1081.000000,1081.000000 
	C722.302429,1081.000000 363.604858,1081.000000 4.456054,1080.531372 
	C4.006401,726.455383 3.998555,372.848053 4.092499,19.240719 
	C4.094019,13.519135 5.339919,7.797881 6.457558,2.048478 
	C8.575993,2.015498 10.241990,2.006157 11.907988,2.006146 
	C368.272003,2.003666 724.635986,2.001843 1081.000000,2.000000 
M845.893799,402.633514 
	C844.404114,399.472290 842.948486,396.294525 841.419617,393.152374 
	C823.459412,356.241241 799.714355,323.552551 770.034302,295.168457 
	C738.366150,264.883148 702.233398,241.476059 661.606079,225.144791 
	C628.325867,211.766891 593.726868,203.943924 557.897034,201.497208 
	C544.281799,200.567429 534.608398,208.851868 534.581726,222.611069 
	C534.499451,265.106415 534.542114,307.602112 534.605042,350.097595 
	C534.618713,359.353302 540.365601,367.816315 549.140625,370.822205 
	C553.809509,372.421478 558.846802,373.003448 563.751770,373.846832 
	C653.636597,389.302460 715.219727,473.333344 703.140442,564.083435 
	C692.987000,640.364868 632.834961,700.251221 556.377014,710.198792 
	C542.685547,711.980164 534.564392,721.020874 534.549377,734.808167 
	C534.504150,776.470764 534.512024,818.133484 534.560303,859.796082 
	C534.576477,873.802795 543.361206,882.136780 557.400330,881.321350 
	C564.703491,880.897217 571.999756,880.119568 579.256958,879.176636 
	C638.668213,871.457153 692.539001,849.796326 739.928284,813.189941 
	C822.626038,749.308899 867.772644,664.823608 874.671387,560.593079 
	C878.282471,506.035217 868.459534,453.439972 845.893799,402.633514 
M282.551605,427.049011 
	C257.389160,454.782654 232.240479,482.528809 207.059647,510.245728 
	C189.294724,529.799805 189.225754,552.985046 206.917404,572.496887 
	C246.611496,616.274780 286.302399,660.055603 325.989105,703.840210 
	C332.824615,711.381531 341.999298,713.839783 350.852844,710.460205 
	C359.418762,707.190369 364.212524,699.536804 364.212189,689.131348 
	C364.208801,590.496826 364.211945,491.862335 364.164917,393.227875 
	C364.163727,390.764923 363.990814,388.180450 363.250366,385.859222 
	C358.398804,370.650726 339.263977,365.649719 328.231964,377.189819 
	C312.822998,393.308533 298.074554,410.058655 282.551605,427.049011 
z"/>
<path fill="#13A857" opacity="1.000000" stroke="none" 
	d="
M6.005120,2.076474 
	C5.339919,7.797881 4.094019,13.519135 4.092499,19.240719 
	C3.998555,372.848053 4.006401,726.455383 4.002421,1080.531372 
	C3.555556,1081.000000 3.111111,1081.000000 2.333305,1080.546387 
	C2.001111,725.251282 2.001661,370.409790 2.010528,15.568281 
	C2.010641,11.073175 2.117379,6.578071 2.551853,2.052174 
	C3.954612,2.039746 4.979866,2.058110 6.005120,2.076474 
z"/>
<path fill="#5DEA9C" opacity="1.000000" stroke="none" 
	d="
M2.174347,2.082966 
	C2.117379,6.578071 2.010641,11.073175 2.010528,15.568281 
	C2.001661,370.409790 2.001111,725.251282 1.999966,1080.546387 
	C1.666653,1080.833374 1.056187,1080.684204 1.044447,1080.497192 
	C0.960992,1079.169067 1.000000,1077.833374 1.000000,1076.500000 
	C1.000000,718.000000 1.000000,359.500000 1.546633,1.270251 
	C2.120294,1.721324 2.147321,1.902145 2.174347,2.082966 
z"/>
<path fill="#2CD07A" opacity="1.000000" stroke="none" 
	d="
M2.551853,2.052174 
	C2.147321,1.902145 2.120294,1.721324 2.046633,1.270251 
	C361.666656,1.000000 721.333313,1.000000 1081.000000,1.500000 
	C724.635986,2.001843 368.272003,2.003666 11.907988,2.006146 
	C10.241990,2.006157 8.575993,2.015498 6.457558,2.048478 
	C4.979866,2.058110 3.954612,2.039746 2.551853,2.052174 
z"/>
<path fill="#E0FADC" opacity="1.000000" stroke="none" 
	d="
M846.027832,402.987854 
	C868.459534,453.439972 878.282471,506.035217 874.671387,560.593079 
	C867.772644,664.823608 822.626038,749.308899 739.928284,813.189941 
	C692.539001,849.796326 638.668213,871.457153 579.256958,879.176636 
	C571.999756,880.119568 564.703491,880.897217 557.400330,881.321350 
	C543.361206,882.136780 534.576477,873.802795 534.560303,859.796082 
	C534.512024,818.133484 534.504150,776.470764 534.549377,734.808167 
	C534.564392,721.020874 542.685547,711.980164 556.377014,710.198792 
	C632.834961,700.251221 692.987000,640.364868 703.140442,564.083435 
	C715.219727,473.333344 653.636597,389.302460 563.751770,373.846832 
	C558.846802,373.003448 553.809509,372.421478 549.140625,370.822205 
	C540.365601,367.816315 534.618713,359.353302 534.605042,350.097595 
	C534.542114,307.602112 534.499451,265.106415 534.581726,222.611069 
	C534.608398,208.851868 544.281799,200.567429 557.897034,201.497208 
	C593.726868,203.943924 628.325867,211.766891 661.606079,225.144791 
	C702.233398,241.476059 738.366150,264.883148 770.034302,295.168457 
	C799.714355,323.552551 823.459412,356.241241 841.419617,393.152374 
	C842.948486,396.294525 844.404114,399.472290 846.027832,402.987854 
z"/>
<path fill="#E0FADC" opacity="1.000000" stroke="none" 
	d="
M282.797546,426.793793 
	C298.074554,410.058655 312.822998,393.308533 328.231964,377.189819 
	C339.263977,365.649719 358.398804,370.650726 363.250366,385.859222 
	C363.990814,388.180450 364.163727,390.764923 364.164917,393.227875 
	C364.211945,491.862335 364.208801,590.496826 364.212189,689.131348 
	C364.212524,699.536804 359.418762,707.190369 350.852844,710.460205 
	C341.999298,713.839783 332.824615,711.381531 325.989105,703.840210 
	C286.302399,660.055603 246.611496,616.274780 206.917404,572.496887 
	C189.225754,552.985046 189.294724,529.799805 207.059647,510.245728 
	C232.240479,482.528809 257.389160,454.782654 282.797546,426.793793 
z"/>
</svg>